<svg id="Layer_1" data-name="Layer 1" xmlns="http://www.w3.org/2000/svg" viewBox="0 0 399.82 29.88"><defs><style>.cls-1{fill:#452924;}</style></defs><title>zlk_logo</title><path class="cls-1" d="M0,23.35V20.23L13.48,3.66H.32V.76h17v3L3.73,20.42h13.7v2.93Z"/><path class="cls-1" d="M28.26,23.35h-3L19,8H22.4l4.36,11.82L31.16,8h3.22Z"/><path class="cls-1" d="M38.71.06a2.15,2.15,0,1,1,0,4.3,2.13,2.13,0,0,1-2.13-2.13A2.14,2.14,0,0,1,38.71.06ZM37.25,23.35V8h3V23.35Z"/><path class="cls-1" d="M58.66,19a7,7,0,0,1-6.89,4.84c-4.11,0-7.71-3-7.71-8.19,0-4.81,3.48-8.09,7.33-8.09,4.72,0,7.36,3.25,7.36,8a7.36,7.36,0,0,1-.06,1H47.15a4.55,4.55,0,0,0,4.62,4.65,4.19,4.19,0,0,0,4.31-3.09Zm-3-4.88a3.86,3.86,0,0,0-4.21-3.91,4.12,4.12,0,0,0-4.17,3.91Z"/><path class="cls-1" d="M73.31,21a5.14,5.14,0,0,1-4.74,2.74c-4.5,0-7.27-3.57-7.27-8.13,0-4.33,2.93-8,7.27-8,2.7,0,4.17,1.34,4.68,2.59V.29h3V20.52a24.5,24.5,0,0,0,.16,2.83h-2.9a13.18,13.18,0,0,1-.16-2.07Zm-4.46.09c2.74,0,4.43-2.39,4.43-5.54s-1.66-5.32-4.4-5.32-4.52,2.23-4.52,5.38S66,21.12,68.85,21.12Z"/><path class="cls-1" d="M89.82,11.06a8.63,8.63,0,0,0-1.31-.1C86,11,84.3,12.3,84.3,15.68v7.67h-3V8h2.93v2.68a4.81,4.81,0,0,1,4.59-2.94,5.81,5.81,0,0,1,1,.1Z"/><path class="cls-1" d="M94.47.06a2.15,2.15,0,1,1-2.14,2.17A2.15,2.15,0,0,1,94.47.06ZM93,23.35V8h3V23.35Z"/><path class="cls-1" d="M101.06,8h3V25.14c0,2.77-1.6,4.74-4.24,4.74A4.88,4.88,0,0,1,98,29.66V27.15a5.15,5.15,0,0,0,.95.09c1.56,0,2.07-.83,2.07-2.23Zm1.47-8a2.15,2.15,0,1,1-2.14,2.17A2.15,2.15,0,0,1,102.53,0Z"/><path class="cls-1" d="M112.85,14.59,117,14c.93-.13,1.18-.61,1.18-1.15,0-1.5-1-2.74-3.31-2.74a3.25,3.25,0,0,0-3.47,3.09l-2.87-.67c.32-2.93,3-5,6.27-5,4.59,0,6.38,2.61,6.38,5.61v7.68a13.78,13.78,0,0,0,.19,2.51h-2.93a10.56,10.56,0,0,1-.16-2.07,5.58,5.58,0,0,1-4.94,2.55c-3.12,0-5.13-2.16-5.13-4.59C108.2,16.5,110.21,15,112.85,14.59Zm5.32,2.2v-.7l-4.68.7a2.28,2.28,0,0,0-2.23,2.29,2.32,2.32,0,0,0,2.48,2.23C116.2,21.31,118.17,20.14,118.17,16.79Z"/><path class="cls-1" d="M127.09,18.42a3.27,3.27,0,0,0,3.57,2.86c1.69,0,2.61-1,2.61-2s-.7-1.68-2-2l-2.61-.58a4.35,4.35,0,0,1-3.83-4.3c0-2.61,2.46-4.84,5.45-4.84,4.21,0,5.51,2.74,5.83,4.11l-2.64,1a3,3,0,0,0-3.19-2.55,2.31,2.31,0,0,0-2.55,2c0,.92.58,1.59,1.75,1.85l2.49.54c2.77.6,4.24,2.29,4.24,4.55s-1.82,4.75-5.61,4.75c-4.21,0-6-2.71-6.24-4.46Z"/><path class="cls-1" d="M148.19,23.35V.29h3V23.35Z"/><path class="cls-1" d="M160,14.59l4.15-.6c.92-.13,1.17-.61,1.17-1.15,0-1.5-1-2.74-3.31-2.74a3.25,3.25,0,0,0-3.47,3.09l-2.87-.67c.32-2.93,3-5,6.28-5,4.59,0,6.37,2.61,6.37,5.61v7.68a14.82,14.82,0,0,0,.19,2.51h-2.93a11.46,11.46,0,0,1-.16-2.07,5.58,5.58,0,0,1-4.94,2.55c-3.12,0-5.13-2.16-5.13-4.59C155.32,16.5,157.33,15,160,14.59Zm5.32,2.2v-.7l-4.68.7a2.29,2.29,0,0,0-2.23,2.29,2.33,2.33,0,0,0,2.49,2.23C163.32,21.31,165.29,20.14,165.29,16.79Z"/><path class="cls-1" d="M177,8h3.31v2.71H177v8c0,1.4.57,2.1,2.13,2.1a6.51,6.51,0,0,0,1.18-.12v2.55a6.85,6.85,0,0,1-2,.28A4,4,0,0,1,174,19.15V10.74H171V8h.83a2.15,2.15,0,0,0,2.36-2.36V3.19H177Z"/><path class="cls-1" d="M191.58,23.35h-3L182.34,8h3.38l4.36,11.82L194.48,8h3.22Z"/><path class="cls-1" d="M202,.06a2.15,2.15,0,1,1,0,4.3,2.13,2.13,0,0,1-2.13-2.13A2.14,2.14,0,0,1,202,.06Zm-1.46,23.29V8h3V23.35Z"/><path class="cls-1" d="M222,19a7,7,0,0,1-6.89,4.84c-4.11,0-7.71-3-7.71-8.19,0-4.81,3.48-8.09,7.33-8.09,4.72,0,7.36,3.25,7.36,8a7.36,7.36,0,0,1-.06,1H210.47a4.55,4.55,0,0,0,4.62,4.65,4.17,4.17,0,0,0,4.3-3.09Zm-3-4.88a3.87,3.87,0,0,0-4.21-3.91,4.12,4.12,0,0,0-4.17,3.91Z"/><path class="cls-1" d="M227.17,18.42a3.26,3.26,0,0,0,3.57,2.86c1.69,0,2.61-1,2.61-2s-.7-1.68-2-2l-2.61-.58a4.35,4.35,0,0,1-3.82-4.3c0-2.61,2.45-4.84,5.45-4.84,4.2,0,5.51,2.74,5.83,4.11l-2.65,1a3,3,0,0,0-3.18-2.55,2.31,2.31,0,0,0-2.55,2c0,.92.57,1.59,1.75,1.85l2.49.54c2.77.6,4.23,2.29,4.23,4.55s-1.81,4.75-5.6,4.75c-4.21,0-6-2.71-6.25-4.46Zm1.15-17,2.23,2.58,2.23-2.58h2.8L232.33,6h-3.54l-3.25-4.52Z"/><path class="cls-1" d="M245.71,23.83c-3.57,0-5.73-2.67-5.73-6.15V8h3v9.21c0,2.1,1,4,3.48,4s3.63-1.6,3.63-3.92V8h3V20.52a26.58,26.58,0,0,0,.16,2.83h-2.87a14.35,14.35,0,0,1-.12-1.84A5,5,0,0,1,245.71,23.83Z"/><path class="cls-1" d="M273.34,14.5,280,23.35h-3.76l-5-6.75-2.13,2.13v4.62h-3V.29h3V14.81L275.73,8h4.14Z"/><path class="cls-1" d="M286.08,14.59l4.14-.6c.93-.13,1.18-.61,1.18-1.15,0-1.5-1-2.74-3.31-2.74a3.25,3.25,0,0,0-3.47,3.09l-2.87-.67c.32-2.93,3-5,6.27-5,4.59,0,6.38,2.61,6.38,5.61v7.68a13.78,13.78,0,0,0,.19,2.51h-2.93a10.56,10.56,0,0,1-.16-2.07,5.58,5.58,0,0,1-4.94,2.55c-3.12,0-5.13-2.16-5.13-4.59C281.43,16.5,283.44,15,286.08,14.59Zm5.32,2.2v-.7l-4.68.7a2.28,2.28,0,0,0-2.23,2.29A2.32,2.32,0,0,0,287,21.31C289.43,21.31,291.4,20.14,291.4,16.79Z"/><path class="cls-1" d="M299.05,23.35V.29h3V23.35Z"/><path class="cls-1" d="M320.49,19a6.94,6.94,0,0,1-6.88,4.84c-4.11,0-7.71-3-7.71-8.19,0-4.81,3.47-8.09,7.33-8.09,4.71,0,7.36,3.25,7.36,8a7.05,7.05,0,0,1-.07,1H309a4.55,4.55,0,0,0,4.62,4.65,4.18,4.18,0,0,0,4.3-3.09Zm-3-4.88a3.85,3.85,0,0,0-4.2-3.91,4.12,4.12,0,0,0-4.18,3.91Z"/><path class="cls-1" d="M327.4,23.35h-3V8h2.93v2.2a5.26,5.26,0,0,1,4.72-2.65c3.66,0,5.48,2.65,5.48,6.06v9.71h-3v-9.2c0-2.14-.89-3.86-3.57-3.86-2.36,0-3.57,1.88-3.57,4.21Z"/><path class="cls-1" d="M353.05,21a5.14,5.14,0,0,1-4.74,2.74c-4.5,0-7.27-3.57-7.27-8.13,0-4.33,2.93-8,7.27-8,2.7,0,4.17,1.34,4.68,2.59V.29h3V20.52a24.5,24.5,0,0,0,.16,2.83h-2.9a13.18,13.18,0,0,1-.16-2.07Zm-4.46.09c2.74,0,4.43-2.39,4.43-5.54s-1.66-5.32-4.4-5.32-4.52,2.23-4.52,5.38S345.72,21.12,348.59,21.12Z"/><path class="cls-1" d="M364.75,14.59l4.14-.6c.92-.13,1.18-.61,1.18-1.15,0-1.5-1-2.74-3.32-2.74a3.25,3.25,0,0,0-3.47,3.09l-2.87-.67c.32-2.93,3-5,6.28-5,4.59,0,6.37,2.61,6.37,5.61v7.68a14.82,14.82,0,0,0,.19,2.51h-2.93a11.46,11.46,0,0,1-.16-2.07,5.58,5.58,0,0,1-4.94,2.55c-3.12,0-5.13-2.16-5.13-4.59C360.09,16.5,362.1,15,364.75,14.59ZM362.48,5V2.39h8.7V5Zm7.59,11.82v-.7l-4.69.7a2.29,2.29,0,0,0-2.23,2.29,2.33,2.33,0,0,0,2.49,2.23C368.09,21.31,370.07,20.14,370.07,16.79Z"/><path class="cls-1" d="M386.22,11.06a8.53,8.53,0,0,0-1.31-.1c-2.51,0-4.2,1.34-4.2,4.72v7.67h-3V8h2.93v2.68a4.81,4.81,0,0,1,4.59-2.94,5.69,5.69,0,0,1,1,.1Z"/><path class="cls-1" d="M390.68,18.42a3.26,3.26,0,0,0,3.57,2.86c1.69,0,2.61-1,2.61-2s-.7-1.68-2-2l-2.62-.58a4.35,4.35,0,0,1-3.82-4.3c0-2.61,2.45-4.84,5.45-4.84,4.2,0,5.51,2.74,5.83,4.11l-2.65,1a3,3,0,0,0-3.18-2.55,2.31,2.31,0,0,0-2.55,2c0,.92.57,1.59,1.75,1.85l2.49.54c2.77.6,4.23,2.29,4.23,4.55s-1.81,4.75-5.6,4.75c-4.21,0-6-2.71-6.25-4.46Z"/></svg>